PathFileType	4	(X/Y/Z)	/Users/visionmauri/Downloads/Videos/OAW12-top_Sports2D/OAW12-top_Sports2D_px_person00.trc
DataRate	CameraRate	NumFrames	NumMarkers	Units	OrigDataRate	OrigDataStartFrame	OrigNumFrames
25.0	25.0	7	22	m	25.0	864	1729
Frame#	Time	Hip			RHip			RKnee			RAnkle			RBigToe			RSmallToe			RHeel			LHip			LKnee			LAnkle			LBigToe			LSmallToe			LHeel			Neck			Head			Nose			RShoulder			RElbow			RWrist			LShoulder			LElbow			LWrist			
		X1	Y1	Z1	X2	Y2	Z2	X3	Y3	Z3	X4	Y4	Z4	X5	Y5	Z5	X6	Y6	Z6	X7	Y7	Z7	X8	Y8	Z8	X9	Y9	Z9	X10	Y10	Z10	X11	Y11	Z11	X12	Y12	Z12	X13	Y13	Z13	X14	Y14	Z14	X15	Y15	Z15	X16	Y16	Z16	X17	Y17	Z17	X18	Y18	Z18	X19	Y19	Z19	X20	Y20	Z20	X21	Y21	Z21	X22	Y22	Z22
864	34.58	510.8604089093351	450.9443948052684	0.0	496.85134281044117	451.29890044673846	0.0	501.28557888188465	510.82947252337397	0.0	502.7005357383956	558.5097183746094	0.0	503.4584478858254	574.1653534813647	0.0	496.0255648968976	572.0405517544546	0.0	503.68443684814144	565.9126735257705	0.0	524.4708923522534	450.7582359535786	0.0	522.4769837614872	508.9804275489172	0.0	522.3406087945451	561.6520943252094	0.0	520.5388799288077	578.7706754561615	0.0	528.7236257750782	577.6420449091918	0.0	520.3201038795664	568.5997925921182	0.0	512.3506527598396	374.182361350887	0.0	513.4562885307037	332.70714665845884	0.0	511.76815762485865	361.55541246192524	0.0	487.63306088338004	383.2409773919613	0.0	477.0629842823913	422.68095663817104	0.0	470.9558296054514	458.5166645287211	0.0	536.4473369722218	383.4216780494503	0.0	545.1839955639454	422.8596595452043	0.0	549.195742778679	459.2565042734411	0.0
865	34.62002314814815	511.40040745081893	451.8421181990668	0.0	497.2368469984405	452.87965008361846	0.0	501.4790172431265	512.8326770046493	0.0	502.64491827816795	558.7125503956381	0.0	503.4980577118945	574.127551669821	0.0	496.5331330541685	571.8650690579375	0.0	503.46181183630955	566.2024705701735	0.0	524.250330311969	451.9332687663328	0.0	522.093058127444	510.81054703097715	0.0	521.465857277882	562.6937619542368	0.0	519.816686533587	579.9387563496543	0.0	527.681829720421	578.7000280993333	0.0	519.2754040483086	569.7003125022502	0.0	512.5925475750887	374.68568285957986	0.0	514.4443871687031	333.10096165579074	0.0	512.4216716953531	361.83022569056425	0.0	487.79084805907274	384.09275732862557	0.0	477.6385954691343	423.6470391905146	0.0	473.7077791946381	459.8135806090904	0.0	536.7693617487555	384.45112460721947	0.0	545.5957236301256	423.9375701201888	0.0	549.6843688012316	460.0969163623118	0.0
866	34.660046296296294	512.1016079483577	452.98492218847775	0.0	497.93701834213414	454.85353011903646	0.0	501.7546051329031	514.6246935422407	0.0	502.62863553676357	558.8887633553065	0.0	503.5121512093983	574.106632200765	0.0	497.36832988058677	571.818984703843	0.0	503.43825154392766	566.2283167493786	0.0	524.5034901925986	453.6916737760747	0.0	521.9135224349503	512.3485821841975	0.0	520.7743878217839	563.4238785598325	0.0	519.2570990762363	581.1172206237239	0.0	526.6545585451064	579.6272935865046	0.0	518.4800895031062	570.5408487747214	0.0	513.1484332749346	374.32090734448605	0.0	515.4590551077459	332.10771256244175	0.0	513.4060282791663	360.8196548316774	0.0	488.22904742154094	384.8070770471084	0.0	478.34820654366655	424.7338157588184	0.0	476.2377306665785	461.03213927464554	0.0	537.3165937071976	385.20643873356346	0.0	546.4344820461155	424.9449049147743	0.0	550.7281257673856	460.9292155388108	0.0
867	34.700069444444445	512.7422892120621	454.1515166140165	0.0	498.7406416903692	455.8377455784756	0.0	501.97642462493644	515.0777750189683	0.0	502.72447718026035	558.6173842715991	0.0	503.4777960326661	574.0508986691716	0.0	497.6234684379629	571.9264395673484	0.0	503.4932395002268	565.1573680513407	0.0	525.475250760915	454.67039300109184	0.0	521.8203809786355	512.8859551165594	0.0	520.1717751225203	564.8516057015665	0.0	518.7098568143177	582.6040250076189	0.0	526.0602156981449	581.038830979271	0.0	517.7019100714181	571.9629611861931	0.0	514.3927936041808	374.3226074926706	0.0	516.7358276721326	332.13766476162124	0.0	514.7997793475887	360.79858351463054	0.0	489.0566977682092	385.35377522253776	0.0	479.37919067011006	425.39864444508845	0.0	478.22177209223815	461.8202006224794	0.0	538.5466339135552	385.7718073043525	0.0	547.7151985352185	425.8383769140935	0.0	552.3462404924222	461.5694651600156	0.0
868	34.74009259259259	513.2793630858836	454.9906983966017	0.0	499.4409207976106	456.04135384830903	0.0	501.9852701303744	514.612907086892	0.0	502.7425105779109	557.6901781805051	0.0	503.5733921781593	573.9517032562454	0.0	497.3966153610006	571.982180512163	0.0	503.3144362532792	563.3937437233028	0.0	526.6016576261371	454.9680722270821	0.0	521.62605562421	512.7686891270694	0.0	519.5925666878913	566.3855955372776	0.0	518.1645602896581	583.924697409282	0.0	525.7954063072684	582.4278858761418	0.0	517.0349120466835	573.5126262237012	0.0	516.0311402897121	374.336620380176	0.0	518.2500782059668	332.8813083842579	0.0	516.211362573013	361.06223967878367	0.0	490.2786010984204	385.40178873038445	0.0	480.55106532352005	425.51530638233265	0.0	479.59568892568194	461.94189757317196	0.0	540.1570386295983	385.84797387213575	0.0	548.8414870065776	426.3534685565316	0.0	553.8450656151361	461.84658302383446	0.0
869	34.78011574074074	513.8470098521203	455.24854456647273	0.0	500.1111709629376	456.5074816875299	0.0	501.79120078453633	514.2903874000968	0.0	502.39264572829353	556.5530166236213	0.0	503.9687558132788	573.8806921655998	0.0	497.40706371894964	571.987728036376	0.0	502.63024035901134	562.0959571733798	0.0	527.517058180851	455.5742026420595	0.0	521.6075635617123	512.72299610562	0.0	519.2066054044457	566.993025399805	0.0	517.7330093217507	584.4860218722049	0.0	525.6223967850173	583.2009013379945	0.0	516.9257290663197	574.2239908720843	0.0	517.2063265290789	374.0296843431577	0.0	519.1935452861131	333.23198651174977	0.0	517.1531684250735	360.4105369041354	0.0	491.472395199221	385.19474967678474	0.0	481.4883951034211	425.6111792161947	0.0	480.43908273351184	461.58824561662135	0.0	541.463870926362	385.4064331628988	0.0	549.6273669981969	426.3082559014546	0.0	554.9034135840603	461.9375674114637	0.0
870	34.82013888888889	514.5707710640462	455.1898421905314	0.0	500.803621059643	457.1333207751531	0.0	501.5373766629349	514.4606728466844	0.0	501.6297677846568	555.4427113272519	0.0	504.5602958228049	573.7949514013087	0.0	497.6913386512263	572.0677393561688	0.0	501.4033902780218	561.4324712840227	0.0	528.3569587022647	456.3352495758381	0.0	522.1557381482451	513.0020353460731	0.0	519.2881894962618	566.9708064972715	0.0	517.565031537858	584.6110904149207	0.0	525.5585396582586	583.6512383407345	0.0	517.5291171195283	574.2985820741833	0.0	517.8652535130385	373.7141761380081	0.0	519.5819898540976	333.0094587548788	0.0	518.03590828921	359.5609897028082	0.0	492.4268608642472	385.20361174939205	0.0	482.3038465978139	425.800751913464	0.0	481.02787543787684	461.4509895762084	0.0	542.2953905722767	384.7629374793034	0.0	550.6470632476393	426.07175175154134	0.0	555.8145711469108	461.96575222533585	0.0
